<?xml version="1.0" encoding="UTF-8" standalone="no"?>
<!-- Created with Inkscape (http://www.inkscape.org/) -->

<svg
   version="1.1"
   id="svg1"
   width="64"
   height="64"
   viewBox="0 0 64 64"
   sodipodi:docname="icon-instagram.svg"
   xml:space="preserve"
   inkscape:version="1.4.2 (f4327f4, 2025-05-13)"
   xmlns:inkscape="http://www.inkscape.org/namespaces/inkscape"
   xmlns:sodipodi="http://sodipodi.sourceforge.net/DTD/sodipodi-0.dtd"
   xmlns="http://www.w3.org/2000/svg"
   xmlns:svg="http://www.w3.org/2000/svg"><defs
     id="defs1" /><sodipodi:namedview
     id="namedview1"
     pagecolor="#ffffff"
     bordercolor="#000000"
     borderopacity="0.25"
     inkscape:showpageshadow="2"
     inkscape:pageopacity="0.0"
     inkscape:pagecheckerboard="0"
     inkscape:deskcolor="#d1d1d1"
     inkscape:zoom="4.391796"
     inkscape:cx="7.4001616"
     inkscape:cy="33.585349"
     inkscape:window-width="1920"
     inkscape:window-height="1013"
     inkscape:window-x="-9"
     inkscape:window-y="-9"
     inkscape:window-maximized="1"
     inkscape:current-layer="svg1" /><g
     inkscape:groupmode="layer"
     id="layer2"
     inkscape:label="Image 2"><path
       id="path5"
       style="fill:#ffffff;stroke-width:2.57991"
       d="M 32.201172 7.9707031 A 25.35849 25.35849 0 0 0 6.8417969 33.328125 A 25.35849 25.35849 0 0 0 32.201172 58.6875 A 25.35849 25.35849 0 0 0 57.560547 33.328125 A 25.35849 25.35849 0 0 0 32.201172 7.9707031 z M 32.201172 9.9023438 A 23.426416 23.426416 0 0 1 55.626953 33.328125 A 23.426416 23.426416 0 0 1 32.201172 56.753906 A 23.426416 23.426416 0 0 1 8.7753906 33.328125 A 23.426416 23.426416 0 0 1 32.201172 9.9023438 z " /><path
       id="rect6"
       style="display:inline;fill:#ffffff;stroke-width:2.89582"
       d="M 26.507812 21.916016 C 23.680428 21.916016 21.404297 24.192146 21.404297 27.019531 L 21.404297 39.099609 C 21.404297 41.926994 23.680428 44.203125 26.507812 44.203125 L 39.207031 44.203125 C 42.034416 44.203125 44.310547 41.926994 44.310547 39.099609 L 44.310547 27.019531 C 44.310547 24.192146 42.034416 21.916016 39.207031 21.916016 L 26.507812 21.916016 z M 27.595703 23.425781 L 38.119141 23.425781 C 40.689755 23.425781 42.759766 25.493839 42.759766 28.064453 L 42.759766 38.054688 C 42.759766 40.625302 40.689755 42.695312 38.119141 42.695312 L 27.595703 42.695312 C 25.025089 42.695312 22.955078 40.625302 22.955078 38.054688 L 22.955078 28.064453 C 22.955078 25.493839 25.025089 23.425781 27.595703 23.425781 z " /><path
       id="path9"
       style="fill:#ffffff;stroke-width:2.85246"
       d="M 32.759766 26.869141 A 5.8916669 5.8916669 0 0 0 26.869141 32.759766 A 5.8916669 5.8916669 0 0 0 32.759766 38.652344 A 5.8916669 5.8916669 0 0 0 38.652344 32.759766 A 5.8916669 5.8916669 0 0 0 32.759766 26.869141 z M 32.759766 28.263672 A 4.4970212 4.4970212 0 0 1 37.257812 32.759766 A 4.4970212 4.4970212 0 0 1 32.759766 37.257812 A 4.4970212 4.4970212 0 0 1 28.263672 32.759766 A 4.4970212 4.4970212 0 0 1 32.759766 28.263672 z " /><circle
       style="fill:#ffffff;stroke-width:3.12969"
       id="path10"
       cx="39.064156"
       cy="26.908178"
       r="1.3484278" /></g></svg>
