<?xml version="1.0" encoding="UTF-8" standalone="no"?>
<svg
   width="64"
   height="64"
   viewBox="0 0 64 64"
   fill="none"
   version="1.1"
   id="svg2"
   sodipodi:docname="icon-facebook.svg"
   inkscape:version="1.4.2 (f4327f4, 2025-05-13)"
   xmlns:inkscape="http://www.inkscape.org/namespaces/inkscape"
   xmlns:sodipodi="http://sodipodi.sourceforge.net/DTD/sodipodi-0.dtd"
   xmlns="http://www.w3.org/2000/svg"
   xmlns:svg="http://www.w3.org/2000/svg">
  <defs
     id="defs2" />
  <sodipodi:namedview
     id="namedview2"
     pagecolor="#ffffff"
     bordercolor="#000000"
     borderopacity="0.25"
     inkscape:showpageshadow="2"
     inkscape:pageopacity="0.0"
     inkscape:pagecheckerboard="0"
     inkscape:deskcolor="#d1d1d1"
     inkscape:zoom="10.192308"
     inkscape:cx="33.603774"
     inkscape:cy="26.14717"
     inkscape:window-width="1920"
     inkscape:window-height="1013"
     inkscape:window-x="-9"
     inkscape:window-y="-9"
     inkscape:window-maximized="1"
     inkscape:current-layer="layer4" />
  <g
     inkscape:groupmode="layer"
     id="layer4"
     inkscape:label="Layer 1">
    <path
       id="path5"
       style="fill:#ffffff;stroke-width:2.57991"
       d="M 32,6.6416015 A 25.35849,25.35849 0 0 0 6.640625,31.999024 25.35849,25.35849 0 0 0 32,57.358399 25.35849,25.35849 0 0 0 57.359375,31.999024 25.35849,25.35849 0 0 0 32,6.6416015 Z m 0,1.931641 A 23.426416,23.426416 0 0 1 55.425781,31.999024 23.426416,23.426416 0 0 1 32,55.424805 23.426416,23.426416 0 0 1 8.5742187,31.999024 23.426416,23.426416 0 0 1 32,8.5732425 Z" />
    <path
       d="m 37.893612,23.85867 0.06771,-3.419821 c 0,0 -6.094583,-1.222017 -7.852304,1.671239 -0.685824,1.129006 -0.891751,2.521378 -0.892893,3.737358 -0.0022,2.464594 0.02481,2.843812 0.02481,2.843812 l -3.434995,-0.05859 v 3.792348 h 3.792185 v 11.511991 h 4.401644 V 32.661958 h 3.927621 v -3.724469 h -3.927621 l -0.01224,-3.240654 c 0,0 -0.178186,-1.731775 1.472001,-1.763594 l 2.076564,-0.03998 z"
       fill="#ffffff"
       id="path1"
       style="stroke-width:1.63175" />
  </g>
</svg>
