<?xml version="1.0" encoding="UTF-8" standalone="no"?>
<!-- Created with Inkscape (http://www.inkscape.org/) -->

<svg
   version="1.1"
   id="svg1"
   width="64"
   height="64"
   viewBox="0 0 64 64"
   sodipodi:docname="icon-twitter.svg"
   xml:space="preserve"
   inkscape:version="1.4.2 (f4327f4, 2025-05-13)"
   xmlns:inkscape="http://www.inkscape.org/namespaces/inkscape"
   xmlns:sodipodi="http://sodipodi.sourceforge.net/DTD/sodipodi-0.dtd"
   xmlns="http://www.w3.org/2000/svg"
   xmlns:svg="http://www.w3.org/2000/svg"><defs
     id="defs1" /><sodipodi:namedview
     id="namedview1"
     pagecolor="#ffffff"
     bordercolor="#000000"
     borderopacity="0.25"
     inkscape:showpageshadow="2"
     inkscape:pageopacity="0.0"
     inkscape:pagecheckerboard="0"
     inkscape:deskcolor="#d1d1d1"
     inkscape:zoom="4.391796"
     inkscape:cx="-5.3508861"
     inkscape:cy="31.080679"
     inkscape:window-width="1920"
     inkscape:window-height="1013"
     inkscape:window-x="-9"
     inkscape:window-y="-9"
     inkscape:window-maximized="1"
     inkscape:current-layer="svg1" /><g
     inkscape:groupmode="layer"
     id="layer2"
     inkscape:label="Image 2"><path
       d="m 43.445205,27.131284 c -0.825081,0.366315 -1.709472,0.61227 -2.639216,0.723909 0.948932,-0.568662 1.678074,-1.468751 2.019968,-2.539787 -0.886134,0.525052 -1.871697,0.907067 -2.916569,1.112901 -0.837293,-0.893113 -2.030434,-1.449563 -3.350914,-1.449563 -2.536299,0 -4.592899,2.054855 -4.592899,4.591154 0,0.359339 0.04187,0.709955 0.120361,1.046616 -3.816659,-0.191879 -7.198973,-2.019968 -9.464896,-4.798733 -0.39597,0.6803 -0.620991,1.46875 -0.620991,2.309532 0,1.5926 0.809383,2.998555 2.042644,3.823637 -0.753563,-0.02442 -1.461773,-0.232 -2.081021,-0.575639 0,0.01919 0,0.03838 0,0.05757 0,2.225803 1.583878,4.080057 3.682344,4.503937 -0.38376,0.104661 -0.790196,0.160481 -1.208842,0.160481 -0.296541,0 -0.58436,-0.02791 -0.865202,-0.08373 0.586105,1.822856 2.281622,3.153803 4.28938,3.190434 -1.569923,1.231518 -3.549772,1.96415 -5.702311,1.96415 -0.371549,0 -0.73612,-0.02093 -1.093714,-0.06454 2.030434,1.304781 4.444628,2.063577 7.038491,2.063577 8.44619,0 13.065254,-6.996626 13.065254,-13.063509 0,-0.198857 -0.0053,-0.399459 -0.01221,-0.594827 0.896598,-0.647157 1.674583,-1.45654 2.290342,-2.377562 z"
       id="path1"
       style="display:inline;fill:#ffffff;stroke-width:0.446556" /><path
       id="path5"
       style="fill:#ffffff;stroke-width:2.57991"
       d="M 32.201172 7.9707031 A 25.35849 25.35849 0 0 0 6.8417969 33.328125 A 25.35849 25.35849 0 0 0 32.201172 58.6875 A 25.35849 25.35849 0 0 0 57.560547 33.328125 A 25.35849 25.35849 0 0 0 32.201172 7.9707031 z M 32.201172 9.9023438 A 23.426416 23.426416 0 0 1 55.626953 33.328125 A 23.426416 23.426416 0 0 1 32.201172 56.753906 A 23.426416 23.426416 0 0 1 8.7753906 33.328125 A 23.426416 23.426416 0 0 1 32.201172 9.9023438 z " /></g></svg>
