<svg width="254" height="74" viewBox="0 0 254 74" fill="none" xmlns="http://www.w3.org/2000/svg">
<path fill-rule="evenodd" clip-rule="evenodd" d="M0 21.5981V21.7865L42.7736 41.8988L85.7002 21.7191V21.6686L42.7736 1.48583L0 21.5981ZM15.4214 21.6931L42.7736 8.83072L70.1318 21.6931L42.7736 34.5539L15.4214 21.6931ZM42.7736 49.7109L0 29.9004V37.2284L42.7736 57.0864L85.7002 37.1595V29.8314L42.7736 49.7109ZM42.7736 64.5737L0 44.7586V52.0851L42.7736 71.9477L85.7002 52.0193V44.6912L42.7736 64.5737Z" fill="white"/>
<mask id="mask0_7_31" style="mask-type:luminance" maskUnits="userSpaceOnUse" x="110" y="0" width="144" height="74">
<path d="M110.207 0H254V73.9697H110.209L110.207 0Z" fill="white"/>
</mask>
<g mask="url(#mask0_7_31)">
<path fill-rule="evenodd" clip-rule="evenodd" d="M244.184 36.9498C244.209 33.7864 243.026 30.7327 240.877 28.4132C239.866 27.3285 238.648 26.4571 237.296 25.8506C235.924 25.2349 234.437 24.921 232.934 24.93C231.389 24.93 229.933 25.2363 228.57 25.8506C227.217 26.4571 225.999 27.3284 224.989 28.4132C222.84 30.7335 221.657 33.7876 221.683 36.9514C221.658 40.1146 222.84 43.1681 224.989 45.488C226 46.5723 227.217 47.4431 228.57 48.0491C229.941 48.6655 231.429 48.98 232.933 48.9713C234.478 48.9713 235.932 48.6649 237.297 48.0491C238.649 47.4428 239.866 46.572 240.877 45.488C243.026 43.1679 244.21 40.1136 244.184 36.9498ZM254.001 36.9498C254.001 39.9092 253.455 42.6527 252.364 45.1801C251.316 47.6441 249.786 49.8732 247.864 51.7361C245.956 53.5819 243.717 55.0386 241.149 56.1078C238.581 57.1785 235.842 57.7131 232.933 57.7131C230.025 57.7131 227.296 57.1785 224.751 56.1078C222.265 55.0768 219.998 53.5818 218.07 51.7024C216.152 49.8229 214.623 47.5837 213.571 45.1127C212.479 42.5853 211.933 39.8648 211.933 36.9498C211.933 34.0808 212.49 31.3834 213.604 28.8559C214.682 26.3802 216.221 24.132 218.137 22.231C220.058 20.3337 222.327 18.8263 224.82 17.7919C227.389 16.7171 230.148 16.1712 232.933 16.1866C235.842 16.1866 238.58 16.7227 241.149 17.7919C243.717 18.861 245.955 20.3193 247.864 22.1636C249.774 24.0078 251.274 26.2044 252.364 28.7533C253.455 31.3037 254.001 34.0364 254.001 36.9498ZM208.523 56.4846C207.682 56.8724 206.803 57.1702 205.899 57.3731C204.923 57.5998 203.909 57.7131 202.866 57.7131C201.448 57.7182 200.036 57.5227 198.673 57.1326C197.379 56.7711 196.18 56.1301 195.16 55.2546C194.161 54.3892 193.365 53.2633 192.773 51.874C192.184 50.4846 191.888 48.8104 191.888 46.8543V-0.00129318H201.911V45.1464C201.911 46.7854 202.24 47.9128 202.899 48.527C203.557 49.1413 204.342 49.4492 205.252 49.4492C206.387 49.4492 207.478 49.1076 208.523 48.4244V56.4846ZM187.457 17.1409L169.729 64.0654C168.411 67.5717 166.683 70.0991 164.547 71.6477C162.411 73.1948 159.864 73.9684 156.911 73.9684C156.456 73.9684 155.957 73.9347 155.411 73.8673C154.881 73.802 154.357 73.6991 153.842 73.5594L150.57 64.407C151.336 64.7686 152.136 65.0544 152.958 65.2602C153.775 65.4655 154.548 65.5681 155.275 65.5681C156.82 65.5681 158.228 65.2158 159.501 64.5096C160.775 63.805 161.751 62.4953 162.434 60.5821L163.797 56.621L148.593 17.1424H159.298L168.365 42.5516L176.889 17.1424L187.457 17.1409ZM146.207 11.2006H120.571V23.9052H145.866V32.5107H120.569V56.6884H110.208V2.11716H146.209L146.207 11.2006Z" fill="white"/>
</g>
</svg>
